HIERARCHY
ROOT Hips
{
	OFFSET 4.076200 -17.275196 43.303001
	CHANNELS 6 Xposition Yposition Zposition Zrotation Xrotation Yrotation
	JOINT Chest
	{
		OFFSET -0.689800 0.941999 5.341000
		CHANNELS 6 Xposition Yposition Zposition Zrotation Xrotation Yrotation
		JOINT Chest2
		{
			OFFSET 0.000000 0.000000 4.278900
			CHANNELS 6 Xposition Yposition Zposition Zrotation Xrotation Yrotation
			JOINT Neck
			{
				OFFSET 0.000000 0.000000 9.970299
				CHANNELS 6 Xposition Yposition Zposition Zrotation Xrotation Yrotation
				JOINT Head
				{
					OFFSET 0.000000 0.000002 2.173901
					CHANNELS 6 Xposition Yposition Zposition Zrotation Xrotation Yrotation
					End Site
					{
						OFFSET 0.000000 0.000000 6.488197
					}
				}
			}
			JOINT LeftCollar
			{
				OFFSET 2.472300 -0.285801 5.433899
				CHANNELS 6 Xposition Yposition Zposition Zrotation Xrotation Yrotation
				JOINT LeftShoulder
				{
					OFFSET 5.327700 0.000000 0.000000
					CHANNELS 6 Xposition Yposition Zposition Zrotation Xrotation Yrotation
					JOINT LeftElbow
					{
						OFFSET 0.000000 0.000000 -10.713001
						CHANNELS 6 Xposition Yposition Zposition Zrotation Xrotation Yrotation
						JOINT LeftWrist
						{
							OFFSET 0.000000 -0.000002 -13.396900
							CHANNELS 6 Xposition Yposition Zposition Zrotation Xrotation Yrotation
							End Site
							{
								OFFSET 0.000000 0.000000 -2.173901
							}
						}
					}
				}
			}
			JOINT RightCollar
			{
				OFFSET -2.589400 -1.358400 6.105000
				CHANNELS 6 Xposition Yposition Zposition Zrotation Xrotation Yrotation
				JOINT RightShoulder
				{
					OFFSET -4.580200 0.000000 0.000000
					CHANNELS 6 Xposition Yposition Zposition Zrotation Xrotation Yrotation
					JOINT RightElbow
					{
						OFFSET 0.000000 0.000000 -10.761101
						CHANNELS 6 Xposition Yposition Zposition Zrotation Xrotation Yrotation
						JOINT RightWrist
						{
							OFFSET 0.000000 -0.000002 -13.028500
							CHANNELS 6 Xposition Yposition Zposition Zrotation Xrotation Yrotation
							End Site
							{
								OFFSET 0.000000 0.000000 -2.173901
							}
						}
					}
				}
			}
		}
	}
	JOINT LeftHip
	{
		OFFSET 2.532500 0.486900 -2.489700
		CHANNELS 6 Xposition Yposition Zposition Zrotation Xrotation Yrotation
		JOINT LeftKnee
		{
			OFFSET 0.000000 -0.000002 -18.199398
			CHANNELS 6 Xposition Yposition Zposition Zrotation Xrotation Yrotation
			JOINT LeftAnkle
			{
				OFFSET 0.000000 -0.000002 -16.083900
				CHANNELS 6 Xposition Yposition Zposition Zrotation Xrotation Yrotation
				End Site
				{
					OFFSET 0.000000 -8.641399 0.000000
				}
			}
		}
	}
	JOINT RightHip
	{
		OFFSET -2.112700 -0.049900 -2.711102
		CHANNELS 6 Xposition Yposition Zposition Zrotation Xrotation Yrotation
		JOINT RightKnee
		{
			OFFSET 0.000000 -0.000002 -19.127298
			CHANNELS 6 Xposition Yposition Zposition Zrotation Xrotation Yrotation
			JOINT RightAnkle
			{
				OFFSET 0.000000 -0.000002 -14.874901
				CHANNELS 6 Xposition Yposition Zposition Zrotation Xrotation Yrotation
				End Site
				{
					OFFSET 0.000000 -8.198299 0.000000
				}
			}
		}
	}
}
MOTION
Frames: 6
Frame Time: 0.041667
0.772500 -20.588894 41.845402 -334.233012 22.743268 12.202843 -0.689799 0.941998 5.340995 5.733688 -29.767416 1.060065 0.000001 -0.000002 4.278905 -0.241749 2.019857 0.405477 -0.000001 0.000001 9.970297 -35.959785 17.161269 -13.042478 -0.000000 0.000002 2.173901 -3.266450 -0.619974 -5.793785 2.472301 -0.285800 5.433894 -7.417888 7.740286 -27.635813 5.327701 -0.000002 0.000003 -26.638269 -68.085156 -92.152086 -0.000007 0.000000 -10.712997 161.260479 -60.195523 200.924945 0.000001 -0.000003 -13.396901 148.065401 -4.245942 113.065319 -2.589397 -1.358400 6.104999 19.313261 6.797388 7.155211 -4.580197 -0.000000 0.000001 95.610211 -58.609498 90.278073 0.000000 0.000001 -10.761103 -44.802773 -42.005257 -52.256582 0.000003 -0.000003 -13.028497 151.041465 186.658114 197.382823 2.532500 0.486901 -2.489697 57.177108 -54.238450 22.990844 -0.000000 0.000001 -18.199400 -110.938036 59.773963 85.200230 -0.000000 -0.000002 -16.083900 12.910172 42.975646 19.177920 -2.112701 -0.049902 -2.711098 -20.050483 -27.361902 -20.537305 0.000002 0.000000 -19.127304 158.472984 151.188327 -188.583299 -0.000000 -0.000003 -14.874901 -4.741376 29.534097 20.612083
0.763898 -20.578295 41.835400 -334.250470 22.742909 12.239164 -0.689802 0.942000 5.341004 5.733593 -29.745306 1.034106 0.000002 -0.000004 4.278904 -0.231144 2.021520 0.407608 0.000001 0.000000 9.970286 -36.010502 17.208696 -12.977505 0.000003 0.000002 2.173902 -3.260159 -0.603408 -5.750304 2.472300 -0.285802 5.433895 -7.392403 7.729306 -27.679862 5.327698 0.000003 -0.000000 -26.992728 -67.979527 -92.464082 -0.000004 0.000002 -10.712999 160.514404 -60.234639 200.359146 -0.000004 -0.000004 -13.396905 147.745379 -4.260655 113.108274 -2.589396 -1.358402 6.104995 19.272222 6.782896 7.135112 -4.580201 -0.000000 -0.000003 95.531424 -58.661332 90.209505 0.000002 0.000004 -10.761106 -44.734683 -42.042584 -52.294619 0.000002 -0.000004 -13.028501 150.949681 186.668278 197.176087 2.532499 0.486903 -2.489698 57.428367 -54.275217 23.205026 0.000002 -0.000000 -18.199398 -111.239200 59.635106 85.328112 -0.000002 -0.000002 -16.083899 12.936552 42.957139 19.414531 -2.112701 -0.049900 -2.711103 -20.102831 -27.415138 -20.601329 0.000002 -0.000004 -19.127298 158.485305 151.075684 -188.551839 -0.000000 -0.000000 -14.874902 -4.762859 29.486350 20.644851
0.754500 -20.568497 41.824200 -334.268912 22.733433 12.281200 -0.689802 0.941999 5.341002 5.742467 -29.714451 1.009403 -0.000000 -0.000002 4.278902 -0.232218 2.016114 0.407825 -0.000003 0.000002 9.970301 -36.066489 17.281699 -12.903382 0.000001 0.000002 2.173899 -3.241430 -0.586298 -5.697088 2.472299 -0.285800 5.433904 -7.363614 7.716133 -27.730196 5.327700 0.000002 0.000011 -27.336405 -67.848326 -92.760225 0.000003 -0.000003 -10.712994 159.916203 -60.411063 199.918790 -0.000004 -0.000007 -13.396898 147.455205 -4.156629 113.232502 -2.589401 -1.358398 6.105002 19.207585 6.709095 7.037901 -4.580199 0.000002 0.000000 95.379268 -58.529175 90.041892 -0.000001 0.000005 -10.761106 -44.801482 -42.039046 -52.354988 0.000001 -0.000003 -13.028500 150.908836 186.686118 196.961127 2.532499 0.486900 -2.489696 57.698556 -54.313070 23.424110 0.000003 0.000002 -18.199402 -111.577117 59.489329 85.487604 -0.000002 -0.000001 -16.083900 12.987693 42.936956 19.619812 -2.112700 -0.049902 -2.711108 -20.135459 -27.456449 -20.656066 0.000000 -0.000003 -19.127300 158.494786 150.970034 -188.538411 -0.000000 -0.000001 -14.874902 -4.789083 29.431965 20.683775
0.748399 -20.559696 41.809399 -334.356939 22.626320 12.330821 -0.689800 0.941995 5.340999 5.839032 -29.599352 1.004061 0.000001 -0.000002 4.278901 -0.235553 2.010594 0.407021 -0.000005 -0.000006 9.970301 -36.180161 17.371987 -12.786797 0.000001 0.000004 2.173896 -3.186142 -0.566688 -5.651700 2.472296 -0.285809 5.433903 -7.339115 7.715270 -27.780077 5.327701 -0.000001 -0.000006 -27.711660 -67.684784 -93.108019 -0.000000 0.000003 -10.712996 159.325664 -60.580206 199.454679 -0.000005 -0.000003 -13.396900 147.170496 -4.058901 113.386755 -2.589403 -1.358407 6.105009 19.152301 6.653468 6.974047 -4.580200 0.000006 0.000002 95.188699 -58.531463 89.840497 -0.000004 -0.000002 -10.761106 -44.860976 -42.005793 -52.479789 0.000001 0.000003 -13.028500 150.965950 186.691227 196.814332 2.532500 0.486899 -2.489696 57.880601 -54.296032 23.474090 0.000002 0.000000 -18.199398 -111.839894 59.366850 85.618935 0.000001 -0.000002 -16.083902 13.023160 42.928610 19.811700 -2.112700 -0.049906 -2.711102 -19.980055 -27.429331 -20.615842 0.000002 -0.000002 -19.127304 158.498078 150.894178 -188.568696 0.000000 -0.000001 -14.874901 -4.849911 29.372942 20.708295
0.741699 -20.551697 41.793999 -334.447098 22.514766 12.375170 -0.689800 0.942001 5.340998 5.948755 -29.466061 1.016611 0.000001 -0.000003 4.278898 -0.250156 1.998903 0.404088 -0.000003 -0.000002 9.970304 -36.283580 17.473349 -12.690422 0.000001 -0.000002 2.173901 -3.105722 -0.543266 -5.641132 2.472301 -0.285801 5.433901 -7.293432 7.698793 -27.843036 5.327701 -0.000001 0.000006 -28.120029 -67.495765 -93.468776 0.000003 0.000003 -10.712999 158.804603 -60.750844 199.008626 0.000001 -0.000010 -13.396900 146.889037 -3.981128 113.516754 -2.589397 -1.358402 6.105007 19.043734 6.528043 6.870985 -4.580200 0.000004 -0.000001 94.967490 -58.440301 89.559517 0.000003 -0.000004 -10.761103 -45.158383 -41.924541 -52.725888 -0.000003 -0.000006 -13.028502 151.153097 186.527275 196.810139 2.532499 0.486901 -2.489703 58.054818 -54.273025 23.516215 0.000001 0.000001 -18.199398 -112.084763 59.274342 85.746646 -0.000002 -0.000001 -16.083900 13.054981 42.932732 19.976471 -2.112700 -0.049904 -2.711112 -19.785279 -27.381265 -20.553124 0.000002 0.000001 -19.127302 158.586378 150.871598 -188.652215 0.000000 -0.000003 -14.874900 -4.976318 29.320578 20.701660
0.733199 -20.544296 41.777401 -334.544441 22.450740 12.420097 -0.689798 0.941999 5.340985 6.089122 -29.411484 1.073055 0.000000 -0.000003 4.278892 -0.262668 2.000327 0.401533 -0.000005 0.000002 9.970301 -36.323369 17.614718 -12.691418 -0.000000 0.000002 2.173888 -3.077560 -0.513894 -5.615252 2.472298 -0.285803 5.433903 -7.290419 7.760349 -27.886658 5.327700 0.000001 0.000001 -28.607540 -67.276148 -93.954716 -0.000003 0.000000 -10.713005 157.947605 -60.727868 198.186408 -0.000001 0.000005 -13.396901 146.208491 -4.275508 112.117405 -2.589401 -1.358399 6.105011 18.963820 6.450472 6.666129 -4.580200 0.000001 0.000004 94.716829 -58.232943 89.301841 -0.000002 -0.000001 -10.761102 -45.428982 -41.914682 -52.907574 0.000000 -0.000002 -13.028500 151.242163 186.385071 196.777586 2.532502 0.486900 -2.489710 58.042524 -54.302132 23.445861 0.000002 0.000001 -18.199400 -112.158837 59.221777 85.831354 -0.000002 -0.000002 -16.083904 13.082646 42.936389 20.132493 -2.112698 -0.049906 -2.711112 -19.754261 -27.372866 -20.566828 0.000002 0.000001 -19.127298 158.686290 150.774937 -188.691011 -0.000001 0.000000 -14.874902 -5.022667 29.263020 20.726977
